<svg width="25" height="25" viewBox="0 0 25 25" fill="none" xmlns="http://www.w3.org/2000/svg">
<g opacity="0.2">
<path d="M17.4395 24.5C17.0363 24.5 16.7339 24.5 16.3306 24.5C11.3911 23.9074 7.7621 21.6358 5.14113 18.7717C2.52016 15.9075 0.403226 12.2532 0 7.2162C0 6.72237 0 6.32731 0 5.83349C0.100806 4.94461 0.504032 4.35202 1.10887 3.75943C1.71371 3.06808 2.72177 2.27796 3.62903 2.1792C4.33468 2.1792 5.44355 2.67302 5.84677 3.26561C6.25 3.75943 6.45161 4.84584 6.65323 5.63596C6.85484 6.52484 7.25806 7.61125 7.15726 8.40137C6.95565 9.58655 5.34274 10.0804 4.93952 10.9693C6.55242 14.6235 9.07258 17.389 12.5 19.1667C13.3065 18.6729 14.1129 17.2902 15.3226 17.2902C15.7258 17.2902 16.3306 17.4877 16.7339 17.5865C17.2379 17.6852 17.6411 17.8828 18.0444 18.0803C18.75 18.3766 20.0605 18.6729 20.4637 19.2655C20.8669 19.8581 21.1694 20.8457 21.0685 21.4383C20.7661 22.7222 18.6492 24.1049 17.4395 24.5Z" fill="black"/>
<path d="M12.6008 1.98147C18.5484 1.98147 23.4879 6.72217 23.4879 12.6481H25C25 5.93206 19.4557 0.5 12.6008 0.5V1.98147Z" fill="black"/>
<path d="M12.6008 9.68506V11.2653C13.4073 11.2653 14.0121 11.8579 14.0121 12.648H15.625C15.625 11.0678 14.3145 9.68506 12.6008 9.68506Z" fill="black"/>
<path d="M12.6008 6.62356C15.9274 6.62356 18.75 9.29021 18.75 12.6482H20.3629C20.3629 8.50009 16.9355 5.14209 12.7016 5.14209V6.62356H12.6008Z" fill="black"/>
</g>
</svg>
